<mxfile host="app.diagrams.net" modified="2022-08-22T13:38:13.589Z" agent="5.0 (Windows NT 10.0; Win64; x64) AppleWebKit/537.36 (KHTML, like Gecko) Chrome/103.0.5060.134 Safari/537.36 OPR/89.0.4447.101 (Edition Yx 05)" etag="dgyEAMDs8Sp6_Z_6yMmU" version="20.2.6" type="github">
  <diagram id="wR63qgCGirKLVIszT084" name="Страница 1">
    <mxGraphModel dx="1658" dy="2281" grid="1" gridSize="10" guides="1" tooltips="1" connect="1" arrows="1" fold="1" page="1" pageScale="1" pageWidth="827" pageHeight="1169" math="0" shadow="0">
      <root>
        <mxCell id="0" />
        <mxCell id="1" parent="0" />
        <mxCell id="yKR85k9DaQNyLv7TKwu0-7" style="edgeStyle=orthogonalEdgeStyle;rounded=0;orthogonalLoop=1;jettySize=auto;html=1;exitX=0.5;exitY=1;exitDx=0;exitDy=0;entryX=0.5;entryY=0;entryDx=0;entryDy=0;fontSize=24;" edge="1" parent="1" source="yKR85k9DaQNyLv7TKwu0-1" target="yKR85k9DaQNyLv7TKwu0-2">
          <mxGeometry relative="1" as="geometry" />
        </mxCell>
        <mxCell id="yKR85k9DaQNyLv7TKwu0-1" value="&lt;font style=&quot;font-size: 24px;&quot;&gt;number = [1, 8, 3, 8, 2, 6, 8, 8]&lt;br&gt;index = 0&lt;br&gt;maximum = numbers[index]&lt;br&gt;count_maximal = 0&lt;br&gt;&lt;/font&gt;" style="rounded=0;whiteSpace=wrap;html=1;" vertex="1" parent="1">
          <mxGeometry x="250" y="40" width="410" height="150" as="geometry" />
        </mxCell>
        <mxCell id="yKR85k9DaQNyLv7TKwu0-6" value="No" style="edgeStyle=orthogonalEdgeStyle;rounded=0;orthogonalLoop=1;jettySize=auto;html=1;exitX=1;exitY=0.5;exitDx=0;exitDy=0;entryX=0;entryY=0.5;entryDx=0;entryDy=0;fontSize=24;" edge="1" parent="1" source="yKR85k9DaQNyLv7TKwu0-2" target="yKR85k9DaQNyLv7TKwu0-5">
          <mxGeometry relative="1" as="geometry" />
        </mxCell>
        <mxCell id="yKR85k9DaQNyLv7TKwu0-8" value="Yes" style="edgeStyle=orthogonalEdgeStyle;rounded=0;orthogonalLoop=1;jettySize=auto;html=1;exitX=0.5;exitY=1;exitDx=0;exitDy=0;fontSize=24;" edge="1" parent="1" source="yKR85k9DaQNyLv7TKwu0-2" target="yKR85k9DaQNyLv7TKwu0-4">
          <mxGeometry relative="1" as="geometry" />
        </mxCell>
        <mxCell id="yKR85k9DaQNyLv7TKwu0-2" value="index &amp;lt; numbers.length" style="rhombus;whiteSpace=wrap;html=1;fontSize=24;" vertex="1" parent="1">
          <mxGeometry x="305" y="260" width="300" height="150" as="geometry" />
        </mxCell>
        <mxCell id="yKR85k9DaQNyLv7TKwu0-10" value="Yes" style="edgeStyle=orthogonalEdgeStyle;rounded=0;orthogonalLoop=1;jettySize=auto;html=1;exitX=0.5;exitY=1;exitDx=0;exitDy=0;fontSize=24;" edge="1" parent="1" source="yKR85k9DaQNyLv7TKwu0-4" target="yKR85k9DaQNyLv7TKwu0-9">
          <mxGeometry relative="1" as="geometry" />
        </mxCell>
        <mxCell id="yKR85k9DaQNyLv7TKwu0-21" value="No" style="edgeStyle=orthogonalEdgeStyle;rounded=0;orthogonalLoop=1;jettySize=auto;html=1;exitX=1;exitY=0.5;exitDx=0;exitDy=0;entryX=0;entryY=0.5;entryDx=0;entryDy=0;fontSize=24;" edge="1" parent="1" source="yKR85k9DaQNyLv7TKwu0-4" target="yKR85k9DaQNyLv7TKwu0-20">
          <mxGeometry relative="1" as="geometry" />
        </mxCell>
        <mxCell id="yKR85k9DaQNyLv7TKwu0-4" value="number[index] &amp;gt; maximum" style="rhombus;whiteSpace=wrap;html=1;fontSize=24;" vertex="1" parent="1">
          <mxGeometry x="277.5" y="460" width="355" height="130" as="geometry" />
        </mxCell>
        <mxCell id="yKR85k9DaQNyLv7TKwu0-5" value="print(count_maximal)" style="rounded=0;whiteSpace=wrap;html=1;fontSize=24;" vertex="1" parent="1">
          <mxGeometry x="770" y="297.5" width="270" height="75" as="geometry" />
        </mxCell>
        <mxCell id="yKR85k9DaQNyLv7TKwu0-18" style="edgeStyle=orthogonalEdgeStyle;rounded=0;orthogonalLoop=1;jettySize=auto;html=1;exitX=0.75;exitY=1;exitDx=0;exitDy=0;entryX=0.159;entryY=-0.022;entryDx=0;entryDy=0;entryPerimeter=0;fontSize=24;" edge="1" parent="1" source="yKR85k9DaQNyLv7TKwu0-9" target="yKR85k9DaQNyLv7TKwu0-15">
          <mxGeometry relative="1" as="geometry" />
        </mxCell>
        <mxCell id="yKR85k9DaQNyLv7TKwu0-9" value="maximum = numbers[index]&lt;br&gt;count_maximal = 1" style="rounded=0;whiteSpace=wrap;html=1;fontSize=24;" vertex="1" parent="1">
          <mxGeometry x="290" y="700" width="330" height="120" as="geometry" />
        </mxCell>
        <mxCell id="yKR85k9DaQNyLv7TKwu0-16" style="edgeStyle=orthogonalEdgeStyle;rounded=0;orthogonalLoop=1;jettySize=auto;html=1;exitX=0.25;exitY=1;exitDx=0;exitDy=0;entryX=0.85;entryY=-0.001;entryDx=0;entryDy=0;entryPerimeter=0;fontSize=24;" edge="1" parent="1" source="yKR85k9DaQNyLv7TKwu0-13" target="yKR85k9DaQNyLv7TKwu0-15">
          <mxGeometry relative="1" as="geometry" />
        </mxCell>
        <mxCell id="yKR85k9DaQNyLv7TKwu0-13" value="count_maximal = count_maximal +1" style="rounded=0;whiteSpace=wrap;html=1;fontSize=24;" vertex="1" parent="1">
          <mxGeometry x="705" y="700" width="340" height="120" as="geometry" />
        </mxCell>
        <mxCell id="yKR85k9DaQNyLv7TKwu0-19" style="edgeStyle=orthogonalEdgeStyle;rounded=0;orthogonalLoop=1;jettySize=auto;html=1;exitX=0;exitY=0.5;exitDx=0;exitDy=0;entryX=0;entryY=0.5;entryDx=0;entryDy=0;fontSize=24;" edge="1" parent="1" source="yKR85k9DaQNyLv7TKwu0-15" target="yKR85k9DaQNyLv7TKwu0-2">
          <mxGeometry relative="1" as="geometry">
            <Array as="points">
              <mxPoint x="200" y="935" />
              <mxPoint x="200" y="335" />
            </Array>
          </mxGeometry>
        </mxCell>
        <mxCell id="yKR85k9DaQNyLv7TKwu0-15" value="index = index + 1" style="rounded=0;whiteSpace=wrap;html=1;fontSize=24;" vertex="1" parent="1">
          <mxGeometry x="480" y="880" width="365" height="110" as="geometry" />
        </mxCell>
        <mxCell id="yKR85k9DaQNyLv7TKwu0-23" value="Yes" style="edgeStyle=orthogonalEdgeStyle;rounded=0;orthogonalLoop=1;jettySize=auto;html=1;exitX=0.5;exitY=1;exitDx=0;exitDy=0;entryX=0.56;entryY=-0.025;entryDx=0;entryDy=0;entryPerimeter=0;fontSize=24;" edge="1" parent="1" source="yKR85k9DaQNyLv7TKwu0-20" target="yKR85k9DaQNyLv7TKwu0-13">
          <mxGeometry relative="1" as="geometry" />
        </mxCell>
        <mxCell id="yKR85k9DaQNyLv7TKwu0-24" style="edgeStyle=orthogonalEdgeStyle;rounded=0;orthogonalLoop=1;jettySize=auto;html=1;exitX=1;exitY=0.5;exitDx=0;exitDy=0;entryX=1;entryY=0.5;entryDx=0;entryDy=0;fontSize=24;" edge="1" parent="1" source="yKR85k9DaQNyLv7TKwu0-20" target="yKR85k9DaQNyLv7TKwu0-15">
          <mxGeometry relative="1" as="geometry" />
        </mxCell>
        <mxCell id="yKR85k9DaQNyLv7TKwu0-25" value="No" style="edgeLabel;html=1;align=center;verticalAlign=middle;resizable=0;points=[];fontSize=24;" vertex="1" connectable="0" parent="yKR85k9DaQNyLv7TKwu0-24">
          <mxGeometry x="-0.7294" y="4" relative="1" as="geometry">
            <mxPoint y="-1" as="offset" />
          </mxGeometry>
        </mxCell>
        <mxCell id="yKR85k9DaQNyLv7TKwu0-20" value="number[index] == maximum" style="rhombus;whiteSpace=wrap;html=1;fontSize=24;" vertex="1" parent="1">
          <mxGeometry x="710" y="427.5" width="370" height="195" as="geometry" />
        </mxCell>
        <mxCell id="yKR85k9DaQNyLv7TKwu0-26" value="&lt;b&gt;Задача 5. Составьте блок-схему на основе псевдокода&lt;/b&gt;" style="text;html=1;strokeColor=none;fillColor=none;align=center;verticalAlign=middle;whiteSpace=wrap;rounded=0;fontSize=24;" vertex="1" parent="1">
          <mxGeometry x="270" y="-90" width="990" height="70" as="geometry" />
        </mxCell>
      </root>
    </mxGraphModel>
  </diagram>
</mxfile>
